 http://www.shotpix.com/images/95304088325044359995.jpg


 
http://www.imdb.com/title/tt1549920/


The leader of a drug cartel busts out of a courthouse and speeds to the Mexican border, where the only thing in his path is a sheriff and his inexperienced staff.
 


Director: 
Jee-woon Kim

 Writers: 
Andrew Knauer (screenplay), Jeffrey Nachmanoff (rewrite) 

Stars:
 Arnold Schwarzenegger, Forest Whitaker and Johnny Knoxville

Genres:
 Action | Crime | Thriller 




Format                                   : AVI
Format/Info                              : Audio Video Interleave
File size                                : 697 MiB
Duration                                 : 1h 39mn
Overall bit rate                         : 982 Kbps
Writing application                      : Lavf54.59.103

Video
ID                                       : 0
Format                                   : MPEG-4 Visual
Format profile                           : Simple@L3
Format settings, BVOP                    : No
Format settings, QPel                    : No
Format settings, GMC                     : No warppoints
Format settings, Matrix                  : Default (H.263)
Codec ID                                 : XVID
Codec ID/Hint                            : XviD
Duration                                 : 1h 39mn
Bit rate                                 : 890 Kbps
Width                                    : 640 pixels
Height                                   : 272 pixels
Display aspect ratio                     : 2.35:1
Frame rate                               : 29.970 fps
Color space                              : YUV
Chroma subsampling                       : 4:2:0
Bit depth                                : 8 bits
Scan type                                : Progressive
Compression mode                         : Lossy
Bits/(Pixel*Frame)                       : 0.171
Stream size                              : 631 MiB (91%)
Writing library                          : XviD 64

Audio
ID                                       : 1
Format                                   : AC-3
Format/Info                              : Audio Coding 3
Mode extension                           : CM (complete main)
Format settings, Endianness              : Big
Codec ID                                 : 2000
Duration                                 : 1h 39mn
Bit rate mode                            : Constant
Bit rate                                 : 80.0 Kbps
Channel(s)                               : 2 channels
Channel positions                        : Front: L R
Sampling rate                            : 48.0 KHz
Bit depth                                : 16 bits
Compression mode                         : Lossy
Stream size                              : 56.8 MiB (8%)
Alignment                                : Aligned on interleaves
Interleave, duration                     : 32 ms (0.96 video frame)



 
http://www.shotpix.com/images/98982990020981051483.png 
http://www.shotpix.com/images/27821706769887173073.png 
http://www.shotpix.com/images/49818261473742903784.png 
http://www.shotpix.com/images/82322946938571930522.png 
http://www.shotpix.com/images/18950782504042719365.png

